<?xml version="1.0" standalone="no"?>
<!DOCTYPE svg PUBLIC "-//W3C//DTD SVG 20010904//EN"
 "http://www.w3.org/TR/2001/REC-SVG-20010904/DTD/svg10.dtd">
<svg version="1.0" xmlns="http://www.w3.org/2000/svg"
 width="512.000000pt" height="512.000000pt" viewBox="0 0 512.000000 512.000000"
 preserveAspectRatio="xMidYMid meet">
<metadata>
Created by potrace 1.14, written by Peter Selinger 2001-2017
</metadata>
<g transform="translate(0.000000,512.000000) scale(0.100000,-0.100000)"
fill="#000000" stroke="none">
<path d="M4333 4909 c-239 -41 -406 -238 -406 -479 0 -132 41 -235 131 -332
216 -232 603 -191 769 82 87 143 87 357 0 500 -32 53 -103 126 -155 159 -94
59 -234 89 -339 70z"/>
<path d="M2125 4604 c-133 -20 -227 -42 -350 -81 -816 -259 -1399 -949 -1521
-1798 -23 -162 -23 -440 0 -600 124 -851 703 -1536 1521 -1798 221 -71 415
-100 665 -100 321 0 589 55 879 180 544 235 973 684 1186 1243 48 126 100 328
121 475 23 160 23 438 0 600 -141 981 -895 1736 -1877 1879 -135 20 -495 20
-624 0z m1386 -644 c82 -15 193 -74 254 -135 68 -68 122 -176 137 -273 41
-262 -146 -514 -410 -554 -262 -41 -514 146 -554 410 -51 328 245 613 573 552z
m-1332 -221 c104 -17 220 -48 293 -80 36 -16 71 -29 77 -29 6 0 11 21 11 50
l0 50 130 0 130 0 -2 -282 -3 -283 -118 -3 -118 -3 -67 69 c-64 65 -71 69
-167 99 -182 57 -191 58 -375 57 -164 0 -180 -2 -255 -28 -372 -128 -610 -377
-701 -736 -26 -101 -26 -335 0 -430 101 -376 364 -651 721 -752 68 -19 103
-22 235 -22 112 1 173 6 220 18 98 26 236 82 321 132 42 24 81 44 88 44 7 0
43 -28 79 -63 37 -35 93 -85 125 -111 31 -27 57 -52 57 -55 0 -10 -205 -144
-269 -176 -146 -73 -304 -120 -487 -145 -146 -20 -380 8 -559 67 -375 122
-701 445 -835 827 -73 207 -95 476 -55 686 107 569 554 1004 1125 1095 105 16
310 19 399 4z"/>
</g>
</svg>
